<svg xmlns="http://www.w3.org/2000/svg" viewBox="0 0 64 64" fill="none">
  <!-- House -->
  <path d="M14 40L20 28H44L50 40Z" stroke="#2563eb" stroke-width="2.5" fill="#dbeafe" stroke-linejoin="round"/>
  <!-- Foundation -->
  <rect x="12" y="40" width="40" height="4" rx="1" fill="#2563eb" opacity="0.3"/>
  <!-- Water waves -->
  <path d="M8 44Q18 40 28 44T48 44T60 44" stroke="#2563eb" stroke-width="2" fill="none" stroke-linecap="round"/>
  <path d="M8 48Q18 44 28 48T48 48T60 48" stroke="#2563eb" stroke-width="1.5" fill="none" opacity="0.5" stroke-linecap="round"/>
  <path d="M8 52Q18 48 28 52T48 52T60 52" stroke="#2563eb" stroke-width="1.5" fill="none" opacity="0.3" stroke-linecap="round"/>
  <!-- Door -->
  <rect x="28" y="32" width="8" height="8" rx="1" fill="#2563eb" opacity="0.4"/>
  <!-- Windows -->
  <rect x="18" y="28" width="6" height="5" rx="1" fill="#2563eb" opacity="0.2"/>
  <rect x="40" y="28" width="6" height="5" rx="1" fill="#2563eb" opacity="0.2"/>
  <!-- Rain cloud -->
  <ellipse cx="32" cy="10" rx="14" ry="7" fill="#94a3b8" opacity="0.6"/>
  <!-- Rain drops -->
  <line x1="26" y1="16" x2="25" y2="22" stroke="#2563eb" stroke-width="1.2" opacity="0.5"/>
  <line x1="32" y1="17" x2="31" y2="23" stroke="#2563eb" stroke-width="1.2" opacity="0.5"/>
  <line x1="38" y1="16" x2="37" y2="22" stroke="#2563eb" stroke-width="1.2" opacity="0.5"/>
</svg>