<svg xmlns="http://www.w3.org/2000/svg" viewBox="0 0 64 64" fill="none">
  <!-- Buildings silhouette -->
  <rect x="10" y="24" width="10" height="30" rx="1" fill="#dc2626" opacity="0.3"/>
  <rect x="22" y="16" width="12" height="38" rx="1" fill="#dc2626" opacity="0.3"/>
  <rect x="36" y="20" width="10" height="34" rx="1" fill="#dc2626" opacity="0.3"/>
  <rect x="48" y="26" width="8" height="28" rx="1" fill="#dc2626" opacity="0.3"/>
  <!-- Sun -->
  <circle cx="48" cy="10" r="10" fill="#f59e0b" opacity="0.8"/>
  <line x1="48" y1="0" x2="48" y2="-3" stroke="#f59e0b" stroke-width="2.5" stroke-linecap="round" opacity="0.6"/>
  <line x1="48" y1="20" x2="48" y2="23" stroke="#f59e0b" stroke-width="2.5" stroke-linecap="round" opacity="0.6"/>
  <line x1="28" y1="10" x2="25" y2="10" stroke="#f59e0b" stroke-width="2.5" stroke-linecap="round" opacity="0.6"/>
  <line x1="68" y1="10" x2="71" y2="10" stroke="#f59e0b" stroke-width="2.5" stroke-linecap="round" opacity="0.6"/>
  <line x1="33" y1="2" x2="31" y2="0" stroke="#f59e0b" stroke-width="2.5" stroke-linecap="round" opacity="0.5"/>
  <line x1="63" y1="2" x2="65" y2="0" stroke="#f59e0b" stroke-width="2.5" stroke-linecap="round" opacity="0.5"/>
  <line x1="33" y1="18" x2="31" y2="20" stroke="#f59e0b" stroke-width="2.5" stroke-linecap="round" opacity="0.5"/>
  <line x1="63" y1="18" x2="65" y2="20" stroke="#f59e0b" stroke-width="2.5" stroke-linecap="round" opacity="0.5"/>
  <!-- Heat waves rising -->
  <path d="M16 60Q20 50 24 60" stroke="#dc2626" stroke-width="1.8" fill="none" opacity="0.5"/>
  <path d="M24 62Q28 52 32 62" stroke="#dc2626" stroke-width="1.8" fill="none" opacity="0.4"/>
  <path d="M42 60Q46 50 50 60" stroke="#dc2626" stroke-width="1.8" fill="none" opacity="0.5"/>
  <path d="M50 62Q54 52 58 62" stroke="#dc2626" stroke-width="1.8" fill="none" opacity="0.4"/>
  <!-- Ground -->
  <rect x="6" y="54" width="52" height="4" rx="1" fill="#dc2626" opacity="0.1"/>
</svg>