<svg xmlns="http://www.w3.org/2000/svg" viewBox="0 0 64 64" fill="none">
  <path d="M32 4C16.536 4 4 16.536 4 32s12.536 28 28 28 28-12.536 28-28S47.464 4 32 4z" fill="#059669"/>
  <path d="M32 8c13.255 0 24 10.745 24 24S45.255 56 32 56 8 45.255 8 32 18.745 8 32 8z" fill="#d1fae5"/>
  <path d="M22 46V30h20v16" stroke="#065f46" stroke-width="3" stroke-linecap="round" stroke-linejoin="round"/>
  <path d="M28 30h8M28 36h8M28 42h4" stroke="#065f46" stroke-width="2" stroke-linecap="round"/>
  <path d="M18 46c-2-4-2-10 0-14M46 46c2-4 2-10 0-14" stroke="#065f46" stroke-width="2.5" stroke-linecap="round"/>
  <path d="M32 22v-4M32 16v-2" stroke="#d1fae5" stroke-width="2.5" stroke-linecap="round"/>
</svg>