<svg xmlns="http://www.w3.org/2000/svg" viewBox="0 0 64 64" fill="none">
  <!-- Speech bubble -->
  <path d="M12 12H44C50 12 56 18 56 24V38C56 44 50 50 44 50H20L12 58V44C12 38 18 32 24 32H44C48 32 50 30 50 28C50 26 48 24 44 24H24C20 24 18 22 18 20C18 18 20 16 24 16H48" stroke="#475569" stroke-width="2" fill="#f8fafc"/>
  <!-- Eyebrows -->
  <path d="M22 28H26" stroke="#1e293b" stroke-width="1.5" stroke-linecap="round"/>
  <path d="M34 28H38" stroke="#1e293b" stroke-width="1.5" stroke-linecap="round"/>
  <!-- Mouth -->
  <path d="M24 36C24 36 28 40 32 40C36 40 40 36 40 36" stroke="#1e293b" stroke-width="1.5" stroke-linecap="round" fill="none"/>
</svg>